# AST/ASF file generated using VICON BodyLanguage
# -----------------------------------------------
:version 1.10
:name VICON
:units
  mass 1.0
  length 0.45
  angle deg
:documentation
   .ast/.asf automatically generated from VICON data using
   VICON BodyBuilder and BodyLanguage model FoxedUp or BRILLIANT.MOD
:root
   order TX TY TZ RX RY RZ
   axis XYZ
   position 0 0 0  
   orientation 0 0 0 
:bonedata
  begin
     id 1 
     name lhipjoint
     direction 0.577973 -0.728611 0.367523 
     length 2.48544 
     axis 0 0 0  XYZ
  end
  begin
     id 2 
     name lfemur
     direction 0.34202 -0.939693 0  
     length 7.1921  
     axis 0 0 20  XYZ
    dof rx ry rz
    limits (-160.0 20.0)
           (-70.0 70.0)
           (-60.0 70.0)
  end
  begin
     id 3 
     name ltibia
     direction 0.34202 -0.939693 0   
     length 7.71059   
     axis 0 0 20   XYZ
    dof rx
    limits (-10.0 170.0)
  end
  begin
     id 4 
     name lfoot
     direction 0.089538 -0.246004 0.965124   
     length 2.19909   
     axis -90 7.62852e-016 20   XYZ
    dof rx rz
    limits (-45.0 90.0)
           (-70.0 20.0)
  end
  begin
     id 5 
     name ltoes
     direction 1.53544e-011 -4.21829e-011 1   
     length 1.10116   
     axis -90 7.62852e-016 20   XYZ
    dof rx
    limits (-90.0 20.0)
  end
  begin
     id 6 
     name rhipjoint
     direction -0.554414 -0.743062 0.374812   
     length 2.4371  
     axis 0 0 0  XYZ 
  end
  begin
     id 7 
     name rfemur
     direction -0.34202 -0.939693 0   
     length 7.47254   
     axis 0 0 -20   XYZ
    dof rx ry rz
    limits (-160.0 20.0)
           (-70.0 70.0)
           (-70.0 60.0)
  end
  begin
     id 8 
     name rtibia
     direction -0.34202 -0.939693 0   
     length 7.65855   
     axis 0 0 -20   XYZ
    dof rx
    limits (-10.0 170.0)
 end
 begin
     id 9 
     name rfoot
     direction -0.133779 -0.367555 0.92033   
     length 2.43006  
     axis -90 -7.62852e-016 -20   XYZ
    dof rx rz
    limits (-45.0 90.0)
           (-20.0 70.0)
  end
  begin
     id 10 
     name rtoes
     direction -1.53563e-011 -4.21889e-011 1   
     length 1.19625   
     axis -90 -7.62852e-016 -20   XYZ
    dof rx
    limits (-90.0 20.0)
  end
  begin
     id 11 
     name lowerback
     direction 0.0249066 0.998043 -0.0573585   
     length 2.08485   
     axis 0 0 0   XYZ
    dof rx ry rz
    limits (-20.0 45.0)
           (-30.0 30.0)
           (-30.0 30.0)
  end
  begin
     id 12 
     name upperback
     direction 0.0237884 0.999673 0.00943178   
     length 2.08515   
     axis 0 0 0   XYZ
    dof rx ry rz
    limits (-20.0 45.0)
           (-30.0 30.0)
           (-30.0 30.0)
  end
  begin
     id 13 
     name thorax
     direction 0.0106671 0.999301 0.0358174   
     length 2.09037   
     axis 0 0 0   XYZ
    dof rx ry rz
    limits (-20.0 45.0)
           (-30.0 30.0)
           (-30.0 30.0)
  end
  begin
     id 14 
     name lowerneck
     direction -0.0580016 0.987052 0.149546   
     length 1.84454   
     axis 0 0 0   XYZ
    dof rx ry rz
    limits (-20.0 45.0)
           (-30.0 30.0)
           (-30.0 30.0)
  end
  begin
     id 15 
     name upperneck
     direction 0.079456 0.981963 -0.171567   
     length 1.88141   
     axis 0 0 0   XYZ
    dof rx ry rz
    limits (-20.0 45.0)
           (-30.0 30.0)
           (-30.0 30.0)
  end
  begin
     id 16
     name head
     direction 0.0262167 0.9967 -0.0768276  
     length 1.89541  
     axis 0 0 0   XYZ
    dof rx ry rz
    limits (-20.0 45.0)
           (-30.0 30.0)
           (-30.0 30.0)
  end
  begin
     id 17 
     name lclavicle
     direction 0.946135 0.322134 -0.0325326  
     length 3.949  
     axis 0 0 0   XYZ
    dof ry rz
    limits (-20.0 10.0)
           (0.0 20.0)
  end
  begin
     id 18 
     name lhumerus
     direction 1 -4.48964e-011 1.94005e-028   
     length 5.10995   
     axis 180 -30 -90   XYZ
    dof rx ry rz
    limits (-60.0 90.0)
           (-90.0 90.0)
           (-90.0 90.0)
  end
  begin
     id 19
     name lradius
     direction 1 -4.48976e-011 2.87852e-027   
     length 3.21207   
     axis 180 -30 -90   XYZ
    dof rx
    limits (-10.0 170.0)
  end
  begin
     id 20
     name lwrist
     direction 1 -4.48963e-011 1.9975e-027   
     length 1.60604   
     axis 2.96054e-016 90 90   XYZ
    dof ry
    limits (-180.0 0.0)
 end
  begin
     id 21 
     name lhand
     direction 1 -4.48919e-011 4.00227e-027   
     length 0.63349   
     axis -2.5488e-015 90 90   XYZ
    dof rx rz
    limits (-90.0 90.0)
           (-45.0 45.0)
  end
  begin
     id 22 
     name lfingers
     direction 1 -4.49037e-011 7.9652e-027   
     length 0.510736   
     axis -5.0975e-015 90 90   XYZ
    dof rx
    limits (0.0 90.0)
  end
  begin
     id 23
     name lthumb
     direction 0.707107 -6.34922e-011 0.707107   
     length 0.733318   
     axis -90 45 -4.48553e-014   XYZ
    dof rx rz
    limits (-45.0 45.0)
           (-45.0 45.0)
  end
  begin
     id 24 
     name rclavicle
     direction -0.940085 0.328911 -0.0897654   
     length 3.93848  
     axis 0 0 0   XYZ 
    dof ry rz
    limits (-10.0 20.0)
           (-20.0 0.0)
  end
  begin
     id 25 
     name rhumerus
     direction -1 -4.48958e-011 3.02044e-027  
     length 5.25109   
     axis 180 30 90   XYZ
    dof rx ry rz
    limits (-90.0 60.0)
           (-90.0 90.0)
           (-90.0 90.0)
  end
  begin
     id 26 
     name rradius
     direction -1 -4.4897e-011 9.78352e-028   
     length 3.28364   
     axis 180 30 90   XYZ
    dof rx
    limits (-10.0 170.0)
  end
  begin
     id 27 
     name rwrist
     direction -1 -4.48943e-011 1.99918e-027   
     length 1.64182   
     axis 2.96054e-016 -90 -90   XYZ
    dof ry
    limits (-180.0 0.0)
  end
  begin
     id 28
     name rhand
     direction -1 -4.49024e-011 3.98478e-027   
     length 0.599745   
     axis -2.5488e-015 -90 -90   XYZ
    dof rx rz
    limits (-90.0 90.0)
           (-45.0 45.0)
  end
  begin
     id 29
     name rfingers
     direction -1 -4.48914e-011 8.00621e-027   
     length 0.48353   
     axis -5.0975e-015 -90 -90   XYZ
    dof rx
    limits (0.0 90.0)
  end
  begin
     id 30
     name rthumb
     direction -0.707107 -6.34992e-011 0.707107   
     length 0.694255   
     axis -90 -45 4.48553e-014   XYZ
    dof rx rz
    limits (-45.0 45.0)
           (-45.0 45.0)
  end
:hierarchy
  begin
    root lhipjoint rhipjoint lowerback
    lhipjoint lfemur
    lfemur ltibia
    ltibia lfoot
    lfoot ltoes
    rhipjoint rfemur
    rfemur rtibia
    rtibia rfoot
    rfoot rtoes
    lowerback upperback
    upperback thorax
    thorax lowerneck lclavicle rclavicle
    lowerneck upperneck
    upperneck head
    lclavicle lhumerus
    lhumerus lradius
    lradius lwrist
    lwrist lhand lthumb
    lhand lfingers
    rclavicle rhumerus
    rhumerus rradius
    rradius rwrist
    rwrist rhand rthumb
    rhand rfingers
  end

#!OML:ASF E:\CV Data\Top Level 1\Subject 1\Session 1\player.ASF
:FULLY-SPECIFIED
:DEGREES
325
root 12.5653 16.5363 1.54691 18.0419 -67.6222 -6.48829
lowerback 17.1244 -5.25618 9.44266
upperback 1.5401 -4.77781 12.8721
thorax -7.54478 -2.68284 10.1736
lowerneck -19.2213 14.0293 -0.240099
upperneck 17.3411 19.448 -0.77425
head 8.56385 9.08201 2.25569
rclavicle -1.27222e-014 8.26944e-014
rhumerus -4.08133 -41.4616 -70.2677
rradius 135.188
rwrist -53.885
rhand -33.66 8.03036
rfingers 7.12502
rthumb -6.85139 -21.8388
lclavicle -1.27222e-014 8.26944e-014
lhumerus 117.245 -54.4364 24.5662
lradius 52.4132
lwrist -13.6552
lhand -9.55889 1.12489
lfingers 7.12502
lthumb 16.4084 30.4509
rfemur -19.4467 -3.38611 -0.367421
rtibia 37.117
rfoot -8.46513 -25.2477
rtoes -20.9511
lfemur -40.9596 10.6516 -5.17082
ltibia 33.7547
lfoot 3.80695 1.22771
ltoes -21.1837
326
root 12.5552 16.5242 1.62592 16.5803 -63.6867 -5.93187
lowerback 16.3797 -5.29049 9.96833
upperback 1.09423 -4.7496 13.5432
thorax -7.61817 -2.67746 10.6303
lowerneck -19.6761 12.875 -0.641233
upperneck 18.1037 17.9049 -0.210723
head 8.81291 8.35072 2.3604
rclavicle 4.13472e-014 -1.59028e-013
rhumerus -3.62277 -41.2191 -72.7845
rradius 135.242
rwrist -54.3511
rhand -33.5959 7.40807
rfingers 7.12502
rthumb -6.7895 -22.4631
lclavicle 4.13472e-014 -1.59028e-013
lhumerus 115.811 -55.4551 25.7118
lradius 51.687
lwrist -14.3048
lhand -8.89166 1.53374
lfingers 7.12502
lthumb 17.0507 30.8055
rfemur -16.7153 -3.49201 -0.281775
rtibia 37.5707
rfoot -8.32306 -25.923
rtoes -20.4272
lfemur -41.2545 9.05597 -5.62971
ltibia 33.4933
lfoot 2.93821 -1.11427
ltoes -21.1908
327
root 12.5491 16.5172 1.69414 15.1522 -59.6292 -5.46042
lowerback 15.6537 -5.27498 10.4175
upperback 0.651231 -4.66832 14.1768
thorax -7.70189 -2.64085 11.0826
lowerneck -20.2029 11.5893 -1.25043
upperneck 18.7937 16.2257 0.39259
head 9.04718 7.55286 2.48962
rclavicle 6.36111e-015 -3.18055e-014
rhumerus -3.22002 -40.677 -75.2813
rradius 135.022
rwrist -54.9058
rhand -33.5862 6.98263
rfingers 7.12502
rthumb -6.78016 -22.8888
lclavicle 6.36111e-015 -3.18055e-014
lhumerus 113.866 -56.5596 27.3508
lradius 50.7658
lwrist -15.0798
lhand -8.32013 1.97682
lfingers 7.12502
lthumb 17.6008 31.2001
rfemur -13.9476 -3.46774 -0.129907
rtibia 38.1198
rfoot -7.92149 -26.2259
rtoes -19.6575
lfemur -41.5193 7.42312 -6.16703
ltibia 33.2178
lfoot 2.31828 -3.67197
ltoes -20.8329
328
root 12.547 16.5142 1.75206 13.6811 -55.495 -5.01592
lowerback 14.9745 -5.18455 10.8077
upperback 0.232445 -4.49226 14.7244
thorax -7.79882 -2.55186 11.4527
lowerneck -20.7465 10.1596 -1.99478
upperneck 19.3409 14.3861 0.980944
head 9.25256 6.67798 2.60794
rclavicle 2.8625e-014 -5.725e-014
rhumerus -2.93817 -39.9655 -77.6451
rradius 134.454
rwrist -55.6565
rhand -33.7028 6.66903
rfingers 7.12502
rthumb -6.8927 -23.1988
lclavicle 2.8625e-014 -5.725e-014
lhumerus 111.551 -57.7082 29.3893
lradius 49.6217
lwrist -15.9209
lhand -7.78561 2.50692
lfingers 7.12502
lthumb 18.1151 31.6833
rfemur -11.1438 -3.27998 0.0802346
rtibia 38.7966
rfoot -7.20924 -25.8865
rtoes -18.9398
lfemur -41.6905 5.69272 -6.79432
ltibia 32.9352
lfoot 1.96108 -6.25356
ltoes -19.9706
329
root 12.5482 16.5126 1.79976 12.1609 -51.3362 -4.59538
lowerback 14.3588 -5.02046 11.1324
upperback -0.150429 -4.22112 15.196
thorax -7.90483 -2.41035 11.7565
lowerneck -21.1992 8.60566 -2.90067
upperneck 19.6587 12.4332 1.50428
head 9.38689 5.74379 2.69955
rclavicle -1.44715e-013 -4.13472e-014
rhumerus -2.76019 -39.1436 -79.7904
rradius 133.464
rwrist -56.882
rhand -33.8723 6.45412
rfingers 7.12502
rthumb -7.05633 -23.4083
lclavicle -1.44715e-013 -4.13472e-014
lhumerus 108.783 -58.8386 31.9819
lradius 48.1829
lwrist -16.8321
lhand -7.16713 3.15623
lfingers 7.12502
lthumb 18.7101 32.2764
rfemur -8.32201 -2.93409 0.375105
rtibia 39.6085
rfoot -6.15978 -24.5989
rtoes -18.7529
lfemur -41.7081 3.82899 -7.49435
ltibia 32.6364
lfoot 1.83686 -8.70278
ltoes -18.7441
330
root 12.5516 16.5111 1.83879 10.6203 -47.2366 -4.22722
lowerback 13.808 -4.76209 11.4162
upperback -0.481837 -3.82517 15.5886
thorax -8.00897 -2.20338 11.9667
lowerneck -21.5152 6.94973 -3.92528
upperneck 19.7436 10.391 1.94517
head 9.44817 4.76054 2.75569
rclavicle 7.4743e-014 5.08889e-014
rhumerus -2.65732 -38.3284 -81.6821
rradius 131.985
rwrist -58.6209
rhand -34.0645 6.18517
rfingers 7.12502
rthumb -7.24182 -23.6709
lclavicle 7.4743e-014 5.08889e-014
lhumerus 105.585 -59.8829 35.1062
lradius 46.4652
lwrist -17.7425
lhand -6.36595 3.96524
lfingers 7.12502
lthumb 19.4805 33.0094
rfemur -5.51993 -2.44664 0.802949
rtibia 40.5266
rfoot -4.89614 -22.2207
rtoes -19.4757
lfemur -41.5166 1.83203 -8.22532
ltibia 32.3116
lfoot 1.86561 -10.9001
ltoes -17.3886
331
root 12.5564 16.5086 1.87139 9.11904 -43.2967 -3.96155
lowerback 13.307 -4.41093 11.6986
upperback -0.745708 -3.30786 15.9221
thorax -8.08443 -1.93589 12.0813
lowerneck -21.6505 5.24437 -5.03092
upperneck 19.6073 8.32615 2.27067
head 9.43594 3.75581 2.76936
rclavicle -4.45278e-014 -1.36764e-013
rhumerus -2.57261 -37.5013 -83.319
rradius 130.024
rwrist -61.1472
rhand -34.3046 5.44184
rfingers 7.12502
rthumb -7.47355 -24.4061
lclavicle -4.45278e-014 -1.36764e-013
lhumerus 101.938 -60.7424 38.7697
lradius 44.4609
lwrist -18.5719
lhand -5.31136 5.01373
lfingers 7.12502
lthumb 20.4942 33.9521
rfemur -2.80667 -1.83499 1.42906
rtibia 41.4967
rfoot -3.73588 -18.8283
rtoes -21.2884
lfemur -41.1056 -0.252191 -8.92586
ltibia 31.9658
lfoot 1.95691 -12.7683
ltoes -16.1957
332
root 12.5617 16.5054 1.89922 7.72184 -39.5789 -3.83874
lowerback 12.8334 -3.98364 12.0248
upperback -0.949784 -2.68957 16.2247
thorax -8.1241 -1.62081 12.1124
lowerneck -21.59 3.54788 -6.17951
upperneck 19.3145 6.30195 2.48196
head 9.36743 2.75852 2.74777
rclavicle -5.08889e-014 2.22639e-014
rhumerus -2.45682 -36.6588 -84.7142
rradius 127.545
rwrist -64.5
rhand -34.5302 3.86928
rfingers 7.12502
rthumb -7.69134 -25.9708
lclavicle -5.08889e-014 2.22639e-014
lhumerus 97.9052 -61.3344 42.8554
lradius 42.1668
lwrist -19.189
lhand -4.03338 6.3977
lfingers 7.12502
lthumb 21.7219 35.199
rfemur -0.254267 -1.15239 2.31523
rtibia 42.4406
rfoot -3.06125 -14.7879
rtoes -23.7039
lfemur -40.5325 -2.35735 -9.54341
ltibia 31.6237
lfoot 2.06191 -14.3125
ltoes -15.2368
333
root 12.5679 16.5013 1.92364 6.48052 -36.145 -3.8646
lowerback 12.3762 -3.49633 12.4269
upperback -1.11766 -1.98681 16.5138
thorax -8.14463 -1.26805 12.0704
lowerneck -21.3284 1.91334 -7.32628
upperneck 18.944 4.37005 2.57696
head 9.26415 1.79264 2.69451
rclavicle -7.15625e-015 -3.18055e-014
rhumerus -2.28147 -35.7618 -85.8907
rradius 124.51
rwrist -68.6062
rhand -34.6697 1.28323
rfingers 7.12502
rthumb -7.82594 -28.5519
lclavicle -7.15625e-015 -3.18055e-014
lhumerus 93.6282 -61.6334 47.1613
lradius 39.6009
lwrist -19.414
lhand -2.67006 8.27063
lfingers 7.12502
lthumb 23.0306 36.9146
rfemur 2.04516 -0.443366 3.47383
rtibia 43.2753
rfoot -2.97991 -10.6454
rtoes -26.105
lfemur -39.896 -4.41963 -10.0433
ltibia 31.3188
lfoot 2.16237 -15.5454
ltoes -14.4705
